<svg xmlns="http://www.w3.org/2000/svg" xmlns:xlink="http://www.w3.org/1999/xlink" width="408" height="204" viewBox="0 0 408 204">
  <defs>
    <clipPath id="clip-logo-posi">
      <rect width="408" height="204"/>
    </clipPath>
  </defs>
  <g id="logo-posi" clip-path="url(#clip-logo-posi)">
    <g id="グループ_5" data-name="グループ 5" transform="translate(-98.795 -62.843)">
      <g id="グループ_1" data-name="グループ 1" transform="translate(289.952 113.471)">
        <path id="パス_1" data-name="パス 1" d="M294.752,179.525c-7.842-.174-8.89.524-11.853,7.845l-5.4,12.551c-3.136,7.147-3.834,9.237-3.834,12.724,0,5.4,1.917,7.149,9.935,8.891q2.617.521,2.616,2.092c0,.871-.871,1.4-2.265,1.4-1.048,0-1.048,0-11.157-.7-2.789-.175-5.579-.175-9.414-.175a26.866,26.866,0,0,0-4.009.175c-2.442.174-4.358.347-4.708.347-1.4,0-2.266-.523-2.266-1.568,0-1.221.177-1.4,4.709-2.613,3.136-1.221,8.193-8.542,11.676-17.259l43.754-97.265c1.048-2.092,1.4-2.443,2.441-2.443s1.571.524,2.442,2.443l36.606,93.6c1.044,2.964,2.265,5.753,3.487,8.891,2.963,8.193,6.623,11.156,15.514,12.551,1.742.35,2.613.871,2.613,1.919s-.871,1.568-2.44,1.568l-3.136-.174c-2.79-.35-2.963-.35-15.865-.523l-8.018.173a37.289,37.289,0,0,0-6.625.524c-1.218.173-2.266.347-2.786.347a2.09,2.09,0,0,1-2.093-1.742c0-1.221.524-1.568,4.88-2.439q4.185-.786,4.184-5.753c0-3.487-1.221-7.669-5.229-18.128l-4.184-11.156c-1.391-3.661-1.915-4.709-2.786-5.229-.871-.7-2.093-.874-5.753-.874Zm18.479-47.412c-1.222-3.487-1.917-4.531-2.79-4.531-.52,0-.871.347-1.4,1.568L292.487,166.1a6.863,6.863,0,0,0-1.045,3.14c0,1.742.524,1.915,6.1,2.265H320.9c5.229,0,6.625-.35,6.625-2.092a14.513,14.513,0,0,0-.871-3.487Z" transform="translate(-252.394 -103.524)" fill="#293b5c"/>
        <path id="パス_2" data-name="パス 2" d="M382.385,154.715c-.174,4.879.524,5.577,5.055,5.577h13.072c18.828-.521,21.441-1.742,22.663-10.633.347-1.394.871-2.092,1.919-2.092,1.217,0,1.741.524,1.741,2.266a9.462,9.462,0,0,1-.173,1.919c-.351,7.494-.524,10.285-.524,15.163a96.037,96.037,0,0,0,.524,10.286,16.238,16.238,0,0,1,.173,2.616c0,1.4-.524,2.09-1.568,2.09-1.568,0-1.919-.694-2.616-4.356-2.439-8.369-4.533-9.764-14.641-9.764H389.356c-5.577,0-7.319,1.048-7.146,4.185l.174,2.963v28.239c0,12.377,1.4,13.772,13.772,13.772,9.762,0,15.863-.524,22.66-2.092,11.853-2.616,17.606-5.926,22.139-12.9.7-1.218,1.221-1.569,2.092-1.569s1.4.7,1.4,2.266c0,3.66-3.487,10.285-7.672,14.817a22.446,22.446,0,0,1-17.429,7.494c-1.4,0-4.185-.173-6.625-.347a246.245,246.245,0,0,0-26.844-1.568c-7.149,0-18.3.521-21.095,1.044a29.372,29.372,0,0,1-4.531.524c-1.218,0-2.613-.871-2.613-1.918,0-1.218.7-1.569,5.4-2.964,4.881-1.568,6.45-6.1,6.276-17.429V130.484c.174-15.863-2.442-20.221-13.075-20.568-1.741-.177-2.439-.7-2.439-1.568,0-1.572,1.4-2.443,3.661-2.443,1.742,0,3.66.177,5.926.351,9.237,1.218,14.466,1.4,27.541,1.4,11.5,0,34.687-.7,38.349-1.222,1.394-.173,2.616-.347,3.313-.347a2.484,2.484,0,0,1,2.786,2.439l-.173,2.093a109.667,109.667,0,0,0-1.044,11.676c-.351,5.58-.871,7.5-2.79,7.5-1.4,0-1.568-.52-1.568-4.879-.7-9.762-4.533-11.507-25.627-11.507H390.75c-6.447-.347-8.54,1.568-8.366,7.148Z" transform="translate(-227.599 -102.942)" fill="#293b5c"/>
      </g>
      <g id="グループ_4" data-name="グループ 4" transform="translate(130.461 92.427)">
        <path id="パス_3" data-name="パス 3" d="M140.206,148.659q-6.295-.293-12.562-.684a3.217,3.217,0,0,0-3.4,3.461,74.094,74.094,0,0,0,8.184,28.989,3.261,3.261,0,0,0,1.985,1.612q4.665,1.346,9.351,2.493a3.188,3.188,0,0,0,3.816-3.93,130.144,130.144,0,0,1-4.338-28.843A3.194,3.194,0,0,0,140.206,148.659Z" transform="translate(-124.239 -71.612)" fill="#293b5c"/>
        <path id="パス_4" data-name="パス 4" d="M145.162,112.633q-4.3,1.021-8.581,2.213a3.274,3.274,0,0,0-1.928,1.457,74.118,74.118,0,0,0-10.405,32.929,3.216,3.216,0,0,0,3.4,3.456q6.306-.388,12.642-.688a3.193,3.193,0,0,0,3.038-3.052,134.642,134.642,0,0,1,5.67-32.284A3.2,3.2,0,0,0,145.162,112.633Z" transform="translate(-124.239 -80.274)" fill="#293b5c"/>
        <path id="パス_5" data-name="パス 5" d="M232.64,152.024q6.334.295,12.642.691a3.215,3.215,0,0,0,3.4-3.459,74.118,74.118,0,0,0-10.618-33.263,3.263,3.263,0,0,0-1.95-1.445q-4.21-1.109-8.434-2.071a3.2,3.2,0,0,0-3.8,4.041,134.693,134.693,0,0,1,5.725,32.456A3.192,3.192,0,0,0,232.64,152.024Z" transform="translate(-99.911 -80.311)" fill="#293b5c"/>
        <g id="グループ_2" data-name="グループ 2" transform="translate(17.294)">
          <path id="パス_6" data-name="パス 6" d="M153.525,96.718a74.975,74.975,0,0,0-15.176,13.616.847.847,0,0,0,.923,1.358q5.074-1.773,10.262-3.211a.829.829,0,0,0,.546-.484q2.137-5.186,4.691-10.18A.856.856,0,0,0,153.525,96.718Z" transform="translate(-138.136 -84.182)" fill="#293b5c"/>
          <path id="パス_7" data-name="パス 7" d="M232.5,109.792A74.978,74.978,0,0,0,217.8,96.723a.857.857,0,0,0-1.247,1.1q2.472,4.841,4.56,9.87a.826.826,0,0,0,.555.484c3.345.884,6.652,1.894,9.929,2.987A.851.851,0,0,0,232.5,109.792Z" transform="translate(-118.987 -84.18)" fill="#293b5c"/>
          <path id="パス_8" data-name="パス 8" d="M188.473,101.834q.28-5.921.648-11.815a3.218,3.218,0,0,0-3.468-3.4,74.127,74.127,0,0,0-24.827,6.2,3.266,3.266,0,0,0-1.62,1.6q-2.1,4.465-3.94,9.031a3.207,3.207,0,0,0,3.547,4.36,174.285,174.285,0,0,1,26.569-2.941A3.184,3.184,0,0,0,188.473,101.834Z" transform="translate(-134.005 -86.614)" fill="#293b5c"/>
          <path id="パス_9" data-name="パス 9" d="M219.387,103.269q-1.807-4.475-3.868-8.852a3.266,3.266,0,0,0-1.62-1.6,74.127,74.127,0,0,0-24.827-6.2,3.218,3.218,0,0,0-3.468,3.4q.362,5.882.647,11.792a3.184,3.184,0,0,0,3.1,3.034,178.738,178.738,0,0,1,26.512,2.79A3.206,3.206,0,0,0,219.387,103.269Z" transform="translate(-126.53 -86.614)" fill="#293b5c"/>
        </g>
        <g id="グループ_3" data-name="グループ 3" transform="translate(17.294 118.573)">
          <path id="パス_10" data-name="パス 10" d="M153.525,196.919A75.012,75.012,0,0,1,138.349,183.3a.848.848,0,0,1,.923-1.359q5.074,1.775,10.262,3.211a.829.829,0,0,1,.546.484q2.137,5.186,4.691,10.18A.856.856,0,0,1,153.525,196.919Z" transform="translate(-138.136 -181.891)" fill="#293b5c"/>
          <path id="パス_11" data-name="パス 11" d="M232.5,183.737a74.978,74.978,0,0,1-14.706,13.07.857.857,0,0,1-1.247-1.1q2.472-4.841,4.56-9.87a.826.826,0,0,1,.555-.484c3.345-.884,6.652-1.894,9.929-2.987A.851.851,0,0,1,232.5,183.737Z" transform="translate(-118.987 -181.786)" fill="#293b5c"/>
          <path id="パス_12" data-name="パス 12" d="M188.473,192.993q.28,5.921.648,11.815a3.218,3.218,0,0,1-3.468,3.4,74.127,74.127,0,0,1-24.827-6.2,3.261,3.261,0,0,1-1.62-1.6q-2.1-4.465-3.94-9.031a3.207,3.207,0,0,1,3.547-4.36,174.284,174.284,0,0,0,26.569,2.941A3.184,3.184,0,0,1,188.473,192.993Z" transform="translate(-134.005 -180.651)" fill="#293b5c"/>
          <path id="パス_13" data-name="パス 13" d="M219.387,191.524q-1.807,4.473-3.868,8.852a3.264,3.264,0,0,1-1.62,1.594,74.127,74.127,0,0,1-24.827,6.2,3.218,3.218,0,0,1-3.468-3.4q.362-5.884.647-11.793a3.184,3.184,0,0,1,3.1-3.034,178.743,178.743,0,0,0,26.512-2.79A3.207,3.207,0,0,1,219.387,191.524Z" transform="translate(-126.53 -180.616)" fill="#293b5c"/>
        </g>
        <path id="パス_14" data-name="パス 14" d="M153.027,153.115c9.975-.279,19.935-.433,29.809-.528a6.621,6.621,0,0,0,6.567-6.567c.1-10.2.256-20.477.551-30.772a6.655,6.655,0,0,0-6.941-6.85,230.956,230.956,0,0,0-26.039,2.62,6.587,6.587,0,0,0-5.3,4.686,158.483,158.483,0,0,0-5.488,30.259A6.648,6.648,0,0,0,153.027,153.115Z" transform="translate(-118.877 -81.289)" fill="#293b5c"/>
        <path id="パス_15" data-name="パス 15" d="M230.438,145.949a158.417,158.417,0,0,0-5.5-30.29,6.583,6.583,0,0,0-5.328-4.688,240.209,240.209,0,0,0-25.994-2.567,6.655,6.655,0,0,0-6.941,6.85c.295,10.293.454,20.574.551,30.762a6.619,6.619,0,0,0,6.57,6.566c9.875.092,19.834.244,29.806.521A6.649,6.649,0,0,0,230.438,145.949Z" transform="translate(-108.973 -81.288)" fill="#293b5c"/>
        <path id="パス_16" data-name="パス 16" d="M145.981,156.665a141.594,141.594,0,0,0,4.182,26.874,6.566,6.566,0,0,0,5.283,4.813,231.053,231.053,0,0,0,27.511,2.877,6.661,6.661,0,0,0,6.958-6.835c-.241-9.238-.382-18.459-.468-27.606a6.622,6.622,0,0,0-6.567-6.57c-9.959-.1-20-.253-30.055-.535A6.636,6.636,0,0,0,145.981,156.665Z" transform="translate(-118.926 -71.193)" fill="#293b5c"/>
        <path id="パス_17" data-name="パス 17" d="M229.4,151.765a130.219,130.219,0,0,1-4.384,29.012,3.188,3.188,0,0,0,3.785,3.938q4.605-1.072,9.191-2.322a3.251,3.251,0,0,0,2.021-1.607,74.105,74.105,0,0,0,8.384-29.34,3.217,3.217,0,0,0-3.4-3.464q-6.267.386-12.562.686A3.193,3.193,0,0,0,229.4,151.765Z" transform="translate(-99.626 -71.61)" fill="#293b5c"/>
        <path id="パス_18" data-name="パス 18" d="M193.7,191.219a240.273,240.273,0,0,0,27.462-2.8,6.568,6.568,0,0,0,5.318-4.814,141.548,141.548,0,0,0,4.2-26.925,6.636,6.636,0,0,0-6.844-6.983c-10.056.281-20.1.436-30.051.526a6.622,6.622,0,0,0-6.57,6.571c-.086,9.146-.227,18.362-.469,27.595A6.661,6.661,0,0,0,193.7,191.219Z" transform="translate(-108.956 -71.191)" fill="#293b5c"/>
      </g>
      <path id="パス_19" data-name="パス 19" d="M286.885,90.12a.963.963,0,0,0-1.871-.286l-5.258,14.892C258.034,75.075,222.227,58.954,188.5,63.647c-24.665,2.922-47.64,15.464-64.694,35.317-17.11,19.92-25.963,44.569-24.926,69.4.955,27.2,13.569,53.519,34.608,72.214a102.224,102.224,0,0,0,67.472,26.086c2.616,0,5.238-.107,7.85-.322,28.855-2.2,56.4-19.1,73.668-45.192a2.211,2.211,0,0,0-.344-2.845,2.149,2.149,0,0,0-1.639-.582,2.224,2.224,0,0,0-1.563.811,102.609,102.609,0,0,1-29.608,25.1l-.01,0c-26.883,15.548-59.691,15.569-87.762.055-28.65-15.833-46.449-44.192-47.61-75.866C111.813,124.294,146.022,82.7,190.2,75.117c26.075-4.65,53.782,3.46,76.026,22.248a57.341,57.341,0,0,1,15.939,22.424l1.974,4.91a2.039,2.039,0,0,0,3.929-.833Z" transform="translate(0 0)" fill="#293b5c"/>
    </g>
  </g>
</svg>
